<mxfile host="app.diagrams.net" agent="Mozilla/5.0 (Macintosh; Intel Mac OS X 10_15_7) AppleWebKit/537.36 (KHTML, like Gecko) Chrome/137.0.0.0 Safari/537.36" version="27.1.4">
  <diagram name="Page-1" id="yadtny4jEoWOzTSWfsVv">
    <mxGraphModel grid="1" page="1" gridSize="10" guides="1" tooltips="1" connect="1" arrows="1" fold="1" pageScale="1" pageWidth="827" pageHeight="1169" math="0" shadow="0">
      <root>
        <mxCell id="0" />
        <mxCell id="1" parent="0" />
        <mxCell id="py5k1rjrg1jsBB6hljWM-7" style="edgeStyle=orthogonalEdgeStyle;rounded=0;orthogonalLoop=1;jettySize=auto;html=1;startArrow=classic;startFill=1;" edge="1" parent="1" source="w4Dr3OeFcrMAhnn8j9h_-9" target="w4Dr3OeFcrMAhnn8j9h_-6">
          <mxGeometry relative="1" as="geometry" />
        </mxCell>
        <mxCell id="py5k1rjrg1jsBB6hljWM-11" style="edgeStyle=orthogonalEdgeStyle;rounded=0;orthogonalLoop=1;jettySize=auto;html=1;entryX=1;entryY=0.5;entryDx=0;entryDy=0;exitX=0;exitY=0.75;exitDx=0;exitDy=0;startArrow=classic;startFill=1;endArrow=none;" edge="1" parent="1" source="w4Dr3OeFcrMAhnn8j9h_-9" target="py5k1rjrg1jsBB6hljWM-9">
          <mxGeometry relative="1" as="geometry" />
        </mxCell>
        <mxCell id="FYs8BC96x9Lc7tufN5Vi-2" style="edgeStyle=orthogonalEdgeStyle;rounded=0;orthogonalLoop=1;jettySize=auto;html=1;entryX=0;entryY=0.5;entryDx=0;entryDy=0;exitX=1;exitY=0.75;exitDx=0;exitDy=0;" edge="1" parent="1" source="w4Dr3OeFcrMAhnn8j9h_-9" target="FYs8BC96x9Lc7tufN5Vi-1">
          <mxGeometry relative="1" as="geometry" />
        </mxCell>
        <mxCell id="w4Dr3OeFcrMAhnn8j9h_-9" value="Patient Care Coordination Manager" style="rounded=1;whiteSpace=wrap;html=1;verticalAlign=top;" vertex="1" parent="1">
          <mxGeometry x="280" y="30" width="290" height="300" as="geometry" />
        </mxCell>
        <mxCell id="w4Dr3OeFcrMAhnn8j9h_-1" value="Open Messaging Standards" style="rounded=1;whiteSpace=wrap;html=1;fillColor=#dae8fc;strokeColor=#6c8ebf;" vertex="1" parent="1">
          <mxGeometry x="430" y="210" width="120" height="60" as="geometry" />
        </mxCell>
        <mxCell id="py5k1rjrg1jsBB6hljWM-8" style="edgeStyle=orthogonalEdgeStyle;rounded=0;orthogonalLoop=1;jettySize=auto;html=1;startArrow=classic;startFill=1;endArrow=none;entryX=1;entryY=0.25;entryDx=0;entryDy=0;" edge="1" parent="1" source="w4Dr3OeFcrMAhnn8j9h_-2" target="w4Dr3OeFcrMAhnn8j9h_-9">
          <mxGeometry relative="1" as="geometry" />
        </mxCell>
        <mxCell id="w4Dr3OeFcrMAhnn8j9h_-2" value="Consultation Note" style="whiteSpace=wrap;html=1;fillColor=#d5e8d4;strokeColor=#82b366;rounded=1;" vertex="1" parent="1">
          <mxGeometry x="630" y="75" width="120" height="60" as="geometry" />
        </mxCell>
        <mxCell id="w4Dr3OeFcrMAhnn8j9h_-5" style="edgeStyle=orthogonalEdgeStyle;rounded=0;orthogonalLoop=1;jettySize=auto;html=1;entryX=0;entryY=0.25;entryDx=0;entryDy=0;" edge="1" parent="1" source="w4Dr3OeFcrMAhnn8j9h_-4" target="w4Dr3OeFcrMAhnn8j9h_-9">
          <mxGeometry relative="1" as="geometry" />
        </mxCell>
        <mxCell id="w4Dr3OeFcrMAhnn8j9h_-4" value="Referral Letter" style="whiteSpace=wrap;html=1;fillColor=#d5e8d4;strokeColor=#82b366;rounded=1;" vertex="1" parent="1">
          <mxGeometry x="100" y="75" width="120" height="60" as="geometry" />
        </mxCell>
        <mxCell id="w4Dr3OeFcrMAhnn8j9h_-6" value="Health Information Exchange (HIE)" style="rounded=1;whiteSpace=wrap;html=1;fillColor=#fff2cc;strokeColor=#d6b656;" vertex="1" parent="1">
          <mxGeometry x="220" y="400" width="410" height="30" as="geometry" />
        </mxCell>
        <mxCell id="w4Dr3OeFcrMAhnn8j9h_-7" value="Clinical Data Repositories" style="rounded=1;whiteSpace=wrap;html=1;fillColor=#d5e8d4;strokeColor=#82b366;" vertex="1" parent="1">
          <mxGeometry x="354" y="440" width="120" height="60" as="geometry" />
        </mxCell>
        <mxCell id="w4Dr3OeFcrMAhnn8j9h_-8" value="Open API Standards" style="rounded=1;whiteSpace=wrap;html=1;fillColor=#dae8fc;strokeColor=#6c8ebf;" vertex="1" parent="1">
          <mxGeometry x="297" y="210" width="120" height="60" as="geometry" />
        </mxCell>
        <mxCell id="w4Dr3OeFcrMAhnn8j9h_-10" value="Health Document Sharing (XDS)" style="rounded=1;whiteSpace=wrap;html=1;fillColor=#d5e8d4;strokeColor=#82b366;" vertex="1" parent="1">
          <mxGeometry x="510" y="440" width="120" height="60" as="geometry" />
        </mxCell>
        <mxCell id="w4Dr3OeFcrMAhnn8j9h_-11" value="Care Service Directory" style="rounded=1;whiteSpace=wrap;html=1;fillColor=#d5e8d4;strokeColor=#82b366;" vertex="1" parent="1">
          <mxGeometry x="220" y="440" width="120" height="60" as="geometry" />
        </mxCell>
        <mxCell id="FGTD7Mu-JeyCOnGH2pwf-1" value="Scheduling&lt;br&gt;(Appointment Booking)" style="rounded=1;whiteSpace=wrap;html=1;fillColor=#dae8fc;strokeColor=#6c8ebf;" vertex="1" parent="1">
          <mxGeometry x="300" y="100" width="114" height="60" as="geometry" />
        </mxCell>
        <mxCell id="py5k1rjrg1jsBB6hljWM-1" value="Workflow Management" style="rounded=1;whiteSpace=wrap;html=1;fillColor=#dae8fc;strokeColor=#6c8ebf;" vertex="1" parent="1">
          <mxGeometry x="430" y="100" width="120" height="60" as="geometry" />
        </mxCell>
        <mxCell id="py5k1rjrg1jsBB6hljWM-2" value="Application" style="rounded=1;whiteSpace=wrap;html=1;fillColor=#fff2cc;strokeColor=#d6b656;" vertex="1" parent="1">
          <mxGeometry x="300" y="60" width="250" height="30" as="geometry" />
        </mxCell>
        <mxCell id="py5k1rjrg1jsBB6hljWM-3" value="Intermediary" style="rounded=1;whiteSpace=wrap;html=1;fillColor=#fff2cc;strokeColor=#d6b656;" vertex="1" parent="1">
          <mxGeometry x="300" y="170" width="251.5" height="30" as="geometry" />
        </mxCell>
        <mxCell id="py5k1rjrg1jsBB6hljWM-4" value="BARS, GP Connect and eRS supported" style="rounded=1;whiteSpace=wrap;html=1;fillColor=#dae8fc;strokeColor=#6c8ebf;" vertex="1" parent="1">
          <mxGeometry x="300" y="280" width="250" height="30" as="geometry" />
        </mxCell>
        <mxCell id="py5k1rjrg1jsBB6hljWM-5" value="Clinical Data Repositories" style="rounded=1;whiteSpace=wrap;html=1;fillColor=#d5e8d4;strokeColor=#82b366;" vertex="1" parent="1">
          <mxGeometry x="364" y="450" width="120" height="60" as="geometry" />
        </mxCell>
        <mxCell id="py5k1rjrg1jsBB6hljWM-6" value="Clinical Data Repositories (CDR)" style="rounded=1;whiteSpace=wrap;html=1;fillColor=#d5e8d4;strokeColor=#82b366;" vertex="1" parent="1">
          <mxGeometry x="374" y="460" width="120" height="60" as="geometry" />
        </mxCell>
        <mxCell id="py5k1rjrg1jsBB6hljWM-9" value="Event notifications" style="whiteSpace=wrap;html=1;fillColor=#d5e8d4;strokeColor=#82b366;rounded=1;" vertex="1" parent="1">
          <mxGeometry x="100" y="225" width="120" height="60" as="geometry" />
        </mxCell>
        <mxCell id="FYs8BC96x9Lc7tufN5Vi-1" value="Event notifications" style="whiteSpace=wrap;html=1;fillColor=#d5e8d4;strokeColor=#82b366;rounded=1;" vertex="1" parent="1">
          <mxGeometry x="630" y="225" width="120" height="60" as="geometry" />
        </mxCell>
      </root>
    </mxGraphModel>
  </diagram>
</mxfile>
